<svg width="20" height="20" viewBox="0 0 20 20" fill="none" xmlns="http://www.w3.org/2000/svg">
<path d="M4.16663 12.5001C3.39006 12.5001 3.00177 12.5001 2.69549 12.3732C2.28711 12.2041 1.96265 11.8796 1.79349 11.4712C1.66663 11.1649 1.66663 10.7767 1.66663 10.0001V4.33341C1.66663 3.39999 1.66663 2.93328 1.84828 2.57676C2.00807 2.26316 2.26304 2.00819 2.57664 1.8484C2.93316 1.66675 3.39987 1.66675 4.33329 1.66675H9.99996C10.7765 1.66675 11.1648 1.66675 11.4711 1.79362C11.8795 1.96277 12.2039 2.28723 12.3731 2.69561C12.5 3.00189 12.5 3.39018 12.5 4.16675M10.1666 18.3334H15.6666C16.6 18.3334 17.0668 18.3334 17.4233 18.1518C17.7369 17.992 17.9918 17.737 18.1516 17.4234C18.3333 17.0669 18.3333 16.6002 18.3333 15.6667V10.1667C18.3333 9.23333 18.3333 8.76662 18.1516 8.4101C17.9918 8.09649 17.7369 7.84153 17.4233 7.68174C17.0668 7.50008 16.6 7.50008 15.6666 7.50008H10.1666C9.23321 7.50008 8.7665 7.50008 8.40998 7.68174C8.09637 7.84153 7.8414 8.09649 7.68162 8.4101C7.49996 8.76662 7.49996 9.23333 7.49996 10.1667V15.6667C7.49996 16.6002 7.49996 17.0669 7.68162 17.4234C7.8414 17.737 8.09637 17.992 8.40998 18.1518C8.7665 18.3334 9.23321 18.3334 10.1666 18.3334Z" stroke="#344054" stroke-width="1.66667" stroke-linecap="round" stroke-linejoin="round"/>
</svg>
